# xmcd CD database file
#
# Track frame offsets:
#	150
#	14380
#	30415
#	55355
#	75782
#	97475
#	112120
#	144042
#	166582
#	183552
#	202060
#	220857
#	239052
#	260090
#	274517
#	296127
#
# Disc length: 4239 seconds
#
# Revision: 4
# Processed by: cddbd v1.5PL3 Copyright (c) Steve Scherf et al.
# Submitted via: CDex 1.51
#
DISCID=eb108d10
DTITLE=Roxette - Tourism
DYEAR=1992
DGENRE=Pop
TTITLE0=How Do You Do
TTITLE1=Fingertips
TTITLE2=The Look
TTITLE3=The Heart Shaped Sea
TTITLE4=The Rain
TTITLE5=Keep Me Waiting
TTITLE6=It Must Have Been Love
TTITLE7=Cinnamon Street
TTITLE8=Never Is A Long Time
TTITLE9=Silver Blue
TTITLE10=Here Comes The Weekend
TTITLE11=So Far Away
TTITLE12=Come Back (Before You Leave)
TTITLE13=Things Will Never Be The Same
TTITLE14=Joyride
TTITLE15=Queen Of Rain
EXTD=YEAR: 1992
EXTT0=
EXTT1=
EXTT2=
EXTT3=
EXTT4=
EXTT5=
EXTT6=
EXTT7=
EXTT8=
EXTT9=
EXTT10=
EXTT11=
EXTT12=
EXTT13=
EXTT14=
EXTT15=
PLAYORDER=
